<?xml version="1.0" encoding="UTF-8"?>
<svg xmlns="http://www.w3.org/2000/svg" xmlns:xlink="http://www.w3.org/1999/xlink" width="1330px" height="665px" viewBox="0 0 1330 665" version="1.1">
<g id="surface1">
<path style=" stroke:none;fill-rule:evenodd;fill:rgb(100%,100%,100%);fill-opacity:1;" d="M 0 377.894531 C 0 377.894531 226.328125 339.246094 492.277344 292.660156 C 649.078125 265.195312 968.863281 210.160156 968.863281 210.160156 C 968.863281 210.160156 1055.816406 211.316406 1155.828125 225.832031 C 1256.089844 240.390625 1330 266.136719 1330 266.136719 L 1330 431.257812 L 0 431.257812 Z M 0 377.894531 "/>
<path style=" stroke:none;fill-rule:nonzero;fill:rgb(87.843137%,84.313725%,98.431373%);fill-opacity:1;" d="M 0 431.429688 C 0 167.246094 0 639.480469 0 375.296875 C 0 375.296875 98.042969 358.675781 240.90625 334.65625 C 331.898438 319.355469 441.136719 300.035156 554.683594 280.75 C 653.695312 263.933594 760.371094 244 858.449219 227.199219 C 894.902344 220.957031 940.738281 211.460938 965.066406 208.273438 C 993.402344 204.5625 1095.171875 215.15625 1150.652344 224.191406 C 1259.8125 241.96875 1330 265.792969 1330 265.792969 L 1330 339.363281 C 1255.925781 273.996094 992.910156 226.847656 890.171875 226.847656 Z M 0 431.429688 "/>
</g>
</svg>
