<?xml version="1.0" encoding="UTF-8"?>
<svg xmlns="http://www.w3.org/2000/svg" xmlns:xlink="http://www.w3.org/1999/xlink" width="1000px" height="500px" viewBox="0 0 1000 500" version="1.1">
<g id="surface1">
<path style=" stroke:none;fill-rule:evenodd;fill:rgb(100%,100%,100%);fill-opacity:1;" d="M 0 284.128906 C 0 284.128906 170.171875 255.074219 370.132812 220.046875 C 488.027344 199.394531 728.46875 158.015625 728.46875 158.015625 C 728.46875 158.015625 793.847656 158.882812 869.046875 169.800781 C 944.429688 180.746094 1000 200.101562 1000 200.101562 L 1000 324.253906 L 0 324.253906 Z M 0 284.128906 "/>
<path style=" stroke:none;fill-rule:nonzero;fill:rgb(87.843137%,84.313725%,98.431373%);fill-opacity:1;" d="M 0 324.382812 C 0 125.75 0 480.8125 0 282.179688 C 0 282.179688 73.714844 269.679688 181.132812 251.621094 C 249.546875 240.117188 331.679688 225.589844 417.054688 211.089844 C 491.5 198.445312 571.707031 183.457031 645.453125 170.824219 C 672.859375 166.132812 707.320312 158.992188 725.613281 156.597656 C 746.917969 153.808594 823.4375 161.773438 865.152344 168.566406 C 947.230469 181.929688 1000 199.84375 1000 199.84375 L 1000 255.160156 C 944.304688 206.011719 746.550781 170.5625 669.304688 170.5625 Z M 0 324.382812 "/>
</g>
</svg>
