<?xml version="1.0" encoding="UTF-8"?>
<svg xmlns="http://www.w3.org/2000/svg" xmlns:xlink="http://www.w3.org/1999/xlink" width="500px" height="250px" viewBox="0 0 1329 250" version="1.1">
<g id="surface3">
<path style=" stroke:none;fill-rule:evenodd;fill:rgb(100%,100%,100%);fill-opacity:1;" d="M 0 170.359375 C 0 170.359375 226.15625 131.742188 491.90625 85.191406 C 648.589844 57.746094 968.136719 2.753906 968.136719 2.753906 C 968.136719 2.753906 1055.023438 3.90625 1154.960938 18.414062 C 1255.144531 32.960938 1329 58.6875 1329 58.6875 L 1329 223.683594 L 0 223.683594 Z M 0 170.359375 "/>
<path style=" stroke:none;fill-rule:nonzero;fill:rgb(87.843137%,84.313725%,98.431373%);fill-opacity:1;" d="M 0 223.855469 C 0 -40.128906 0 431.75 0 167.765625 C 0 167.765625 97.96875 151.15625 240.726562 127.15625 C 331.648438 111.867188 440.804688 92.558594 554.265625 73.289062 C 653.203125 56.484375 759.800781 36.566406 857.804688 19.777344 C 894.230469 13.539062 940.03125 4.050781 964.339844 0.867188 C 992.65625 -2.839844 1094.347656 7.746094 1149.789062 16.773438 C 1258.867188 34.535156 1329 58.34375 1329 58.34375 L 1329 131.859375 C 1254.980469 66.539062 992.164062 19.425781 889.503906 19.425781 Z M 0 223.855469 "/>
</g>
</svg>
